<?xml version="1.0" standalone="no"?>
<!DOCTYPE svg PUBLIC "-//W3C//DTD SVG 20010904//EN"
 "http://www.w3.org/TR/2001/REC-SVG-20010904/DTD/svg10.dtd">
<svg version="1.0" xmlns="http://www.w3.org/2000/svg"
 width="615.000000pt" height="615.000000pt" viewBox="0 0 615.000000 615.000000"
 preserveAspectRatio="xMidYMid meet">
<metadata>
Created by potrace 1.14, written by Peter Selinger 2001-2017
</metadata>
<g transform="translate(0.000000,615.000000) scale(0.100000,-0.100000)"
fill="#000000" stroke="none">
<path d="M900 5752 c-91 -40 -115 -147 -48 -216 20 -20 175 -114 333 -201 28
-16 145 -84 262 -152 117 -67 217 -123 223 -123 5 0 10 -3 10 -7 0 -5 23 -19
51 -33 28 -14 53 -30 56 -37 4 -11 -165 -315 -179 -321 -5 -2 -8 -8 -8 -13 0
-4 -20 -43 -45 -85 -25 -41 -45 -77 -45 -80 0 -2 -13 -25 -29 -51 -16 -27 -86
-147 -156 -268 -70 -121 -136 -236 -148 -255 -11 -19 -27 -47 -34 -62 -8 -15
-18 -30 -23 -33 -9 -6 -89 35 -120 61 -8 7 -19 13 -25 15 -9 1 -78 40 -125 69
-40 25 -172 100 -176 100 -2 0 -23 12 -47 27 -23 15 -53 33 -67 40 -14 7 -43
24 -65 38 -22 13 -46 28 -54 32 -8 3 -64 35 -125 71 -145 84 -171 94 -219 77
-46 -16 -64 -30 -83 -66 -20 -41 -17 -91 9 -129 18 -28 149 -116 217 -147 8
-4 65 -36 125 -71 121 -71 162 -95 215 -124 19 -11 49 -28 65 -39 17 -10 37
-22 45 -26 8 -4 75 -42 149 -85 73 -43 137 -78 142 -78 5 0 9 -4 9 -10 0 -5 6
-10 13 -11 6 0 32 -13 57 -29 25 -16 65 -39 90 -51 25 -12 48 -27 52 -33 10
-15 16 -7 204 319 92 159 222 385 289 500 147 253 411 710 443 766 13 22 20
44 17 48 -3 5 -62 42 -133 82 -70 40 -208 119 -307 177 -99 57 -204 117 -232
133 -29 16 -82 47 -119 69 -36 22 -70 40 -75 40 -5 0 -9 5 -9 10 0 6 -5 10
-11 10 -5 0 -54 25 -107 57 -53 31 -116 67 -140 80 -42 22 -91 29 -122 15z"/>
<path d="M5150 5747 c-32 -17 -170 -95 -190 -107 -84 -52 -451 -260 -458 -260
-6 0 -12 -4 -14 -8 -1 -5 -28 -22 -58 -39 -138 -75 -440 -253 -440 -258 0 -6
30 -59 91 -163 27 -45 49 -87 49 -92 0 -6 4 -10 8 -10 5 0 14 -16 22 -35 8
-19 16 -35 20 -35 3 0 18 -25 34 -55 15 -30 32 -57 37 -60 5 -4 9 -15 9 -26 0
-10 3 -19 8 -19 4 0 20 -24 36 -53 28 -50 227 -397 246 -427 41 -68 100 -174
100 -181 0 -5 5 -9 10 -9 6 0 10 -4 10 -10 0 -5 23 -47 50 -94 28 -47 50 -89
50 -95 0 -6 5 -11 10 -11 6 0 10 -4 10 -10 0 -5 18 -39 40 -75 22 -36 40 -67
40 -70 0 -2 14 -26 32 -54 l31 -51 46 27 c25 15 62 35 81 45 35 18 51 28 100
59 14 9 50 30 80 46 30 17 90 51 133 77 43 25 80 46 83 46 3 0 18 8 32 19 15
10 47 29 72 43 25 14 61 35 80 47 19 11 41 24 49 28 8 4 75 42 149 85 74 43
136 78 137 78 18 0 135 85 153 110 59 87 -9 203 -118 199 -25 -1 -49 -6 -55
-10 -9 -6 -199 -117 -290 -169 -16 -10 -70 -41 -118 -69 -49 -28 -92 -51 -97
-51 -5 0 -10 -3 -12 -7 -1 -5 -16 -15 -33 -24 -16 -9 -105 -59 -197 -112 -92
-54 -169 -97 -172 -97 -5 0 -135 217 -150 250 -3 8 -15 29 -26 45 -11 17 -26
41 -33 55 -28 55 -79 140 -88 146 -5 3 -9 14 -9 24 0 10 -4 20 -8 22 -10 4
-102 164 -102 177 0 5 -3 11 -8 13 -7 3 -82 125 -82 134 0 2 -11 21 -23 42
-13 20 -35 57 -49 82 -14 25 -42 73 -62 107 -20 34 -36 66 -36 71 0 6 12 17
28 25 15 7 101 57 192 109 191 111 222 129 270 154 19 11 37 22 40 25 3 3 30
19 60 35 30 16 57 32 60 35 3 3 28 18 55 33 28 16 68 38 90 51 106 59 133 76
146 92 55 66 41 162 -30 201 -44 25 -85 28 -121 9z"/>
<path d="M2968 4835 c-2 -2 -30 -5 -63 -9 -72 -7 -79 -9 -181 -35 -383 -98
-706 -363 -884 -726 -54 -109 -129 -330 -116 -342 2 -3 1 -16 -4 -29 -27 -69
-29 -356 -4 -464 3 -14 8 -40 10 -58 8 -61 75 -246 122 -337 100 -194 274
-395 437 -503 44 -28 85 -56 90 -60 26 -21 189 -93 272 -121 147 -49 293 -69
465 -66 80 2 150 5 155 8 4 3 30 8 57 11 27 4 52 9 56 11 4 2 17 6 31 8 91 17
306 110 400 173 28 19 55 34 59 34 5 0 10 3 12 8 2 4 23 23 48 41 144 110 307
317 390 496 59 125 69 154 86 230 1 6 6 28 12 50 6 22 14 59 17 82 3 23 8 57
10 75 6 42 7 266 1 293 -2 11 -7 43 -10 70 -22 166 -109 392 -208 539 -83 123
-159 207 -302 331 -7 6 -19 15 -27 20 -9 6 -42 27 -74 49 -120 80 -329 169
-446 190 -128 24 -178 29 -286 31 -68 1 -124 1 -125 0z m322 -284 c19 -6 49
-14 65 -16 71 -12 303 -118 345 -157 11 -10 22 -18 24 -18 24 0 214 -192 264
-267 182 -269 242 -599 165 -898 -8 -33 -16 -64 -18 -70 -1 -5 -7 -23 -13 -38
-7 -16 -12 -30 -12 -32 0 -15 -68 -144 -108 -206 -85 -130 -244 -282 -362
-345 -19 -11 -37 -21 -40 -24 -5 -6 -136 -61 -185 -79 -88 -31 -252 -55 -360
-51 -96 3 -123 6 -229 26 -103 19 -369 141 -384 177 -2 4 -10 7 -17 7 -19 0
-217 196 -251 249 -16 24 -37 56 -46 70 -54 84 -108 219 -138 346 -67 283 -2
610 171 868 47 69 242 267 263 267 8 0 16 4 18 8 4 11 112 75 168 100 84 38
120 51 120 45 0 -3 7 0 15 7 8 7 15 9 15 6 0 -4 8 -2 18 3 9 5 35 12 57 16 22
4 54 9 70 12 17 3 31 6 33 8 9 8 321 -4 352 -14z"/>
<path d="M2156 1860 l-27 -5 1 -673 c1 -729 0 -722 54 -757 41 -27 105 -30
143 -6 71 45 68 14 68 623 0 301 2 548 5 549 3 0 308 1 678 2 442 1 672 -1
673 -8 1 -5 2 -248 4 -540 1 -291 3 -538 4 -547 0 -10 15 -33 32 -52 62 -71
172 -55 218 32 9 16 12 196 12 698 1 371 -2 678 -5 681 -7 7 -1821 10 -1860 3z"/>
</g>
</svg>
